<svg xmlns="http://www.w3.org/2000/svg" width="24" height="24" viewBox="0 0 24 24">
    <g fill="none" fill-rule="evenodd">
        <g>
            <g>
                <g fill="#626262" class="fill" fill-rule="nonzero">
                    <path d="M17.473 8.473c-.292 0-.528.236-.528.527 0 4.381-3.564 7.945-7.945 7.945S1.055 13.381 1.055 9 4.619 1.055 9 1.055c1.336 0 2.635.331 3.795.963l-.659.66c-.15.15-.196.377-.114.574.082.197.274.326.487.326h2.523c.292 0 .528-.236.528-.527V.527c0-.213-.129-.405-.326-.487-.197-.081-.424-.036-.575.115l-1.09 1.09C12.188.429 10.617 0 9 0 6.596 0 4.336.936 2.636 2.636.936 4.336 0 6.596 0 9s.936 4.664 2.636 6.364C4.336 17.064 6.596 18 9 18s4.664-.936 6.364-2.636C17.064 13.664 18 11.404 18 9c0-.291-.236-.527-.527-.527z" transform="translate(3 3)"/>
                    <path d="M12.701 8.35h-3.05V5.298c0-.31-.252-.562-.563-.562-.31 0-.562.252-.562.562v3.613c0 .31.252.562.562.562h3.613c.31 0 .562-.252.562-.562 0-.31-.252-.563-.562-.563z" transform="translate(3 3)"/>
                </g>
                <path d="M0 0H24V24H0z"/>
            </g>
        </g>
    </g>
</svg>
