<svg xmlns="http://www.w3.org/2000/svg" width="26" height="26" viewBox="0 0 26 26">
    <g fill="none" fill-rule="evenodd">
        <g transform="translate(-915 -607) translate(916 608)">
            <rect width="24" height="24" stroke="#363636" stroke-width=".6" rx="4"/>
            <g fill="#363636" class="fill">
                <path d="M1.667.002c.323-.016.683.05 1.08.196.397.147.771.353 1.122.62C4.531.6 5.202.49 5.882.49c.68 0 1.344.109 1.992.326.393-.295.748-.501 1.065-.619.317-.118.693-.183 1.127-.196.141.327.22.69.235 1.092.015.401-.036.739-.154 1.012.905 1.52 1.09 2.854.554 3.999S9.036 7.935 7.313 8.16c.181.155.322.316.424.483.102.167.147.499.137.997V12H3.869v-1.607c-.62.314-1.208.314-1.76 0-.83-.471-.965-1.327-1.32-1.75-.353-.422-.843-.572-.784-.76.059-.19.387-.183.785 0 .397.181.537.408.877.76.34.354.383.55 1.08.732.465.121.854.073 1.166-.145.01-.211.05-.407.12-.586.07-.18.17-.34.298-.483-1.48-.207-2.451-.656-2.913-1.348C.724 5.776.758 4.707.79 4.114c.02-.395.313-1.064.877-2.008-.166-.298-.25-.635-.25-1.012s.084-.74.25-1.092z" transform="translate(7 6)"/>
            </g>
        </g>
    </g>
</svg>
