<svg xmlns="http://www.w3.org/2000/svg" width="26" height="26" viewBox="0 0 26 26">
    <g fill="none" fill-rule="evenodd">
        <g>
            <g>
                <g transform="translate(-873 -607) translate(874 608)">
                    <g fill="#363636" fill-rule="nonzero">
                        <g>
                            <g class="fill">
                                <path d="M1.42 0C.561 0 0 .594 0 1.375 0 2.14.545 2.75 1.387 2.75h.016c.876 0 1.42-.611 1.42-1.375C2.808.595 2.28 0 1.42 0zM0 3.438L2.824 3.438 2.824 11 0 11zM9.072 3.438c-1.373 0-2.293 1.245-2.293 1.245V3.61H4.235V11H6.78V6.874c0-.221.017-.442.084-.6.184-.44.602-.898 1.305-.898.92 0 1.288.678 1.288 1.671V11H12V6.763c0-2.27-1.255-3.325-2.928-3.325z" transform="translate(6 7)"/>
                            </g>
                        </g>
                    </g>
                    <rect width="24" height="24" stroke="#363636" stroke-width=".6" rx="4"/>
                </g>
            </g>
        </g>
    </g>
</svg>
