<svg xmlns="http://www.w3.org/2000/svg" width="903.407" height="312" viewBox="0 0 903.407 312">
  <g id="Group_16" data-name="Group 16" transform="translate(-123.563 -94)">
    <path id="Subtraction_7" data-name="Subtraction 7" d="M-7541,523.975h-.01a18.491,18.491,0,0,1-6.559-1.338,14.409,14.409,0,0,1-5.871-4.09,13.737,13.737,0,0,1-3.4-5.381c-1.233-3.542-1.073-5-1.071-5.016V410.9l-.261-.154v-5.759a8.009,8.009,0,0,0-8-8h-170.4a8.009,8.009,0,0,0-8,8v25.652l-.136,75.477v.014a20.147,20.147,0,0,1-.887,6.551,12.356,12.356,0,0,1-1.784,3.712l0,.005-.006.012,0,.006-.014.022-.018.024-.018.028-.05.076c-.236.349-.488.729-.748,1.129a17.359,17.359,0,0,1-4,3.632,12.3,12.3,0,0,1-3.259,1.559l-.02.007-.016,0c-.106.035-.259.087-.479.162l-.174.06a13.059,13.059,0,0,1-4.136.7c-.1,0-.26,0-.405-.012h-.012l-214.808-.1a18.53,18.53,0,0,1-8.462-2.515,18.728,18.728,0,0,1-4.545-4.036,21.549,21.549,0,0,1-2.776-5.4,14.318,14.318,0,0,1-.644-5.249V506.5l.016-275.643,1.414-5.237.034,0c1.075-.052,6.82-.311,14.343-.311h15.952l.875,3.107V361.489c0,4.651,2.9,8.434,6.46,8.434h172.756c3.56,0,6.457-3.784,6.457-8.434v-7.612c.04-.257.08-.534.11-.758v-.012l.016-125.883a16.421,16.421,0,0,1,1.763-6.113,15.294,15.294,0,0,1,5.115-6.11c2.845-2.294,7.841-2.87,8.4-2.928l212.634-.07s.052,0,.152,0c.8,0,4.924.072,7.588,1.494a16.453,16.453,0,0,1,7.606,6.86,21.185,21.185,0,0,1,2.068,8.426v.008l.445,75.388V488.437a8.127,8.127,0,0,0,8.073,8.161h7.987l.018.026h155.931l.02-.026h7.56a8.126,8.126,0,0,0,8.071-8.161v-11.26l.125-.15.056-248.126a15.2,15.2,0,0,1,1.432-6.914,26.55,26.55,0,0,1,3.217-4.649,22.958,22.958,0,0,1,5.75-3.905,16.266,16.266,0,0,1,5.951-1.31h.008l218.014.042c.042,0,.256-.016.58-.016a15.238,15.238,0,0,1,6.531,1.452l.01.006.339.168.009,0a14.269,14.269,0,0,1,4.444,3.113,9.9,9.9,0,0,1,2.24,2.8l.006.01.046.082.008.014.03.05.014.022.03.053c.1.172.228.407.389.675a15.545,15.545,0,0,1,2.008,7.022l-.038,147.4.295,130.567h-33.141l-.012-21.907V404.986a8.367,8.367,0,0,0-.044-.84v-.784l-.13-.046a8.037,8.037,0,0,0-2.757-4.521,8.014,8.014,0,0,0-5.067-1.809h-169.8a8.013,8.013,0,0,0-5.055,1.8,8.01,8.01,0,0,0-2.764,4.5l-.145.074v.865c-.024.258-.036.514-.036.76V507.747a18.807,18.807,0,0,1-.215,2.238c-.027.107-.053.221-.078.339l-.012.054-.006.03-.014.072,0,.014-.012.062-.01.052-.01.032,0,.006-.005.027a10.341,10.341,0,0,1-.554,1.93l-.046.116,0,.008,0,.006a17.257,17.257,0,0,1-3.688,5.9,14.984,14.984,0,0,1-2.916,2.383,15.335,15.335,0,0,1-4.7,2.048,15.54,15.54,0,0,1-3.919.5c-.351,0-.59-.012-.634-.018Zm-409.968-126.99a8.009,8.009,0,0,0-8,8v84a8.009,8.009,0,0,0,8,8h169.3a8.01,8.01,0,0,0,8-8v-84a8.01,8.01,0,0,0-8-8Zm651.4-160a8.009,8.009,0,0,0-8,8v117a8.009,8.009,0,0,0,8,8h172.4a8.008,8.008,0,0,0,8-8v-117a8.008,8.008,0,0,0-8-8Zm-436-.4a8.008,8.008,0,0,0-8,8v117.4a8.008,8.008,0,0,0,8,8h169.4a8.009,8.009,0,0,0,8-8v-117.4a8.009,8.009,0,0,0-8-8Z" transform="translate(8115.563 -117.986)" fill="#443868"/>
    <path id="Path_16" data-name="Path 16" d="M16.141,0a16.266,16.266,0,0,1,16.1,16.48A16.3,16.3,0,0,1,16.141,33,16.688,16.688,0,0,1-.432,16.5,16.688,16.688,0,0,1,16.141,0Z" transform="translate(124 94)" fill="#443868"/>
    <path id="Path_22" data-name="Path 22" d="M16.395,0A16.386,16.386,0,0,1,32.738,16.48,16.42,16.42,0,0,1,16.395,33C7.339,33-.432,25.613-.432,16.5S7.339,0,16.395,0Z" transform="translate(994.232 373)" fill="#443868"/>
  </g>
</svg>
