<svg xmlns="http://www.w3.org/2000/svg" width="24" height="24" viewBox="0 0 24 24">
    <g fill="none" fill-rule="evenodd">
        <g>
            <g>
                <path d="M0 0H24V24H0z"/>
                <g fill="#000" fill-rule="nonzero" class="fill">
                    <path d="M11.311 2.097h-10.1c-.31.01-.6-.148-.758-.415-.158-.266-.158-.597 0-.863.158-.267.449-.426.758-.415h10.1c.31-.01.6.148.758.415.158.266.158.597 0 .863-.158.267-.449.426-.758.415zM21.526 10.734H1.194c-.456-.016-.818-.39-.818-.847 0-.456.362-.83.818-.846h20.332c.456.016.818.39.818.846 0 .457-.362.831-.818.847z" transform="translate(.64 6.23)"/>
                </g>
            </g>
        </g>
    </g>
</svg>
