<svg xmlns="http://www.w3.org/2000/svg" viewBox="0 0 208 158">
    <g fill="none" fill-rule="evenodd">
        <g>
            <g>
                <g fill-rule="nonzero">
                    <g transform="translate(-694 -1059) translate(694 1059) translate(0 21)">
                        <path fill="#2F2E41" d="M26.336 19.76s-2.632-.782-3.197.07c-.564.85.77 7.021.77 7.021l5.8.355-2.025-5.138-1.348-2.307z"/>
                        <path fill="#A0616A" d="M6.646 69.957s5.635 11.027 1.295 10.68c-4.34-.346-6.024-10.68-6.024-10.68h4.729zM40.064 69.026S37.47 80.841 41.79 79.58c4.32-1.262 3.09-11.565 3.09-11.565l-4.816 1.012zM25.81 15.76s-.061 5.914 2.19 6.223c2.25.308-1.278 3.45-1.278 3.45l-4.014.801-5.778-.431-2.555-3.328s4.5-2.156 2.555-8.872l8.88 2.156z"/>
                        <path fill="#000" d="M25.81 15.76s-.061 5.914 2.19 6.223c2.25.308-1.278 3.45-1.278 3.45l-4.014.801-5.778-.431-2.555-3.328s4.5-2.156 2.555-8.872l8.88 2.156z" opacity=".1"/>
                        <path fill="#000" d="M34.985 66.082s2.78 6.053.592 25.051c0 0 .65 6.713.118 7.971-.533 1.259-4.91 18.34-4.91 18.34s-5.621 1.258-6.39-2.517c0 0 .769-5.394.71-6.233-.06-.84 1.242-10.01 1.242-10.01l-2.663-17.74-2.011 16.003s0 4.615-.65 5.633c-.652 1.02 0 21.516 0 21.516s1.833 3.117-.948 3.177c-2.78.06-5.265-.06-5.502-2.038-.237-1.978-.355-3.956-.947-5.154-.591-1.199-1.36-14.923-1.183-19.718.178-4.795-3.905-29.427-2.603-32.004 1.302-2.577 25.145-2.277 25.145-2.277z"/>
                        <ellipse cx="22.521" cy="11.174" fill="#A0616A" rx="7.188" ry="7.287"/>
                        <path fill="#F2F2F2" d="M15.152 23.436s4.3 3.27 10.544.666c0 0 2.062-1.03 1.885-2.604-.177-1.575 4.3 12.658 4.3 12.658l4.536 24.772-.236 10.115s-2.003-1.03-8.247 1.272C21.691 72.616 11.5 67.71 11.5 67.71l.353-25.983.354-15.142.942-3.331s.472-.909 2.003.182z"/>
                        <path fill="#2F2E41" d="M25.875 19.438s1.068-.173 2.096 1.457c1.028 1.63 3.446 2.657 3.446 2.657s5.865.362 6.711 3.501c.847 3.14 2.963 7.427 3.99 15.336 1.028 7.91 3.084 20.529 3.386 21.555.302 1.027-.423 4.166.423 5.132.847.966-5.985.966-5.985.966s-.605-4.95-1.028-4.95c-.423 0-.302 3.32.121 5.735.423 2.415-3.083 0-3.083 0s-2.721-11.049-5.32-21.011c-2.6-9.962-4.112-15.457-3.629-17.69.484-2.235 1.814-8.635.847-9.239-.967-.603-1.975-3.45-1.975-3.45zM17.137 19.433s-1.564.854-5.514 3.677c-3.951 2.823-6.645 4.985-6.645 4.985s-1.556 1.202-2.514 8.35C1.506 43.591-.648 62.091.19 64.434c.838 2.342 1.137 3.724.838 5.105-.3 1.382 6.285 1.322 6.404 1.022.12-.3-.18-5.767.12-5.887.3-.12 1.916 3.244 2.215 6.067.3 2.823 3.771 5.045 4.55 5.045.777 0 4.788-16.278 4.848-27.39.06-11.112-1.317-20.482-2.335-21.803-1.017-1.322.307-7.161.307-7.161z"/>
                        <path fill="#666" d="M28.297 117.65s.476-1.347 2.144-.919c1.667.429 2.798-1.102 2.798-1.102s.893-.122.298 1.04c-.596 1.164-1.072 1.96-1.072 1.96s3.573 8.386 1.25 10.406c-2.322 2.02-5.001.796-5.001.796s-2.62-1.898-2.5-6.917c0 0-.12-1.592-1.549-4.163-1.429-2.57-2.5-6.489-.774-7.223 1.727-.735 2.171-.762 2.171-.762s-.808 3.8 1.28 5.127l.955 1.756zM16.05 126.66s-1.38-2.738.918-3.042c2.298-.304 4.768-.486 4.653.79-.115 1.278-.402 3.225-.402 3.225l.402 1.399s.115 3.467.517 3.893c.402.425 2.585 4.075-2.068 4.075-4.652 0-6.031-.547-5.629-1.703.402-1.156.517-6.874.517-6.874l1.091-1.764z"/>
                        <path fill="#242423" d="M20.49 5.558s3.39.92 5.145 1.289c1.756.368 1.574-.675 1.574-.675s2.3.307 2.18.061c-.122-.245.968-1.534-.303-3.007S28.178.648 28.178.648h-1.09l-.302-.43H25.09s-1.272-.49-4.601 0c-3.33.491-7.87.614-8.233 2.64-.363 2.025-2.24 4.541-1.574 5.707.666 1.167 4.48 5.954 4.843 7.98.363 2.025 2.06 2.475 1.998 1.206-.06-1.268-1.756-5.687-.303-5.871 1.453-.184 3.935-3.928 3.269-6.322z"/>
                    </g>
                    <g>
                        <path fill="#FFF" d="M165.937 57.097h-.06l-33.835 14.32-46.294 19.595c-.365.153-.777.155-1.144.006L36.842 71.377 2.175 57.12l-.053-.023h-.059C.924 57.098 0 58.013 0 59.142v88.813c0 1.129.924 2.044 2.063 2.045h163.874c1.139-.001 2.063-.916 2.063-2.045V59.142c0-1.13-.924-2.044-2.063-2.045z" transform="translate(-694 -1059) translate(694 1059) translate(40)"/>
                        <path fill="#3F3D56" d="M166.734 58.065c-.06 0-.119-.02-.168-.054L85.036.858c-.507-.354-1.181-.353-1.688.003L2.406 58.011c-.086.06-.198.07-.293.026-.096-.045-.16-.138-.17-.243-.009-.106.038-.208.125-.27L83.009.376c.71-.499 1.653-.5 2.365-.004l81.529 57.153c.105.074.15.209.112.333-.038.123-.152.208-.281.208z" transform="translate(-694 -1059) translate(694 1059) translate(40)"/>
                        <path fill="#E6E6E6" d="M6.798 59.305L84.192 2.903 162.173 63.319 88.179 106.452 48.007 97.447z" transform="translate(-694 -1059) translate(694 1059) translate(40)"/>
                        <path fill="#443868" d="M50.695 133.548H13.398c-.623.001-1.2-.367-1.511-.967-.312-.599-.312-1.337 0-1.937.312-.599.888-.967 1.51-.967h37.298c.623 0 1.199.368 1.51.967.312.6.312 1.338 0 1.937-.311.6-.887.968-1.51.967zM26.455 126.904H13.36c-.61 0-1.173-.368-1.478-.967-.305-.6-.305-1.338 0-1.937.305-.6.869-.968 1.478-.967h13.095c.61 0 1.173.368 1.478.967.305.6.305 1.338 0 1.937-.305.6-.869.968-1.478.967z" transform="translate(-694 -1059) translate(694 1059) translate(40)"/>
                        <path fill="#FFF" d="M85.208 90.968c-.289 0-.575-.056-.843-.165L36.902 71.188V9.79c.001-1.13.92-2.047 2.056-2.048h91.055c1.135.001 2.055.917 2.056 2.048V71.23l-.089.038-45.904 19.525c-.275.115-.57.174-.868.174z" transform="translate(-694 -1059) translate(694 1059) translate(40)"/>
                        <path fill="#3F3D56" d="M86.177 90.968c-.307 0-.612-.06-.896-.177L37.873 70.98V8.986c.001-1.22.984-2.21 2.196-2.212h90.775c1.213.002 2.195.991 2.196 2.212v62.036L87.1 90.78c-.292.123-.606.187-.923.187zM38.458 70.586l47.046 19.66c.44.18.93.176 1.367-.008l45.584-19.606V8.986c-.001-.895-.722-1.62-1.61-1.622H40.068c-.889.001-1.61.727-1.61 1.622v61.6z" transform="translate(-694 -1059) translate(694 1059) translate(40)"/>
                        <path fill="#3F3D56" d="M165.937 57.097h-.06l-33.835 14.32-46.294 19.595c-.365.153-.777.155-1.144.006L36.842 71.377 2.175 57.12l-.053-.023h-.059C.924 57.098 0 58.013 0 59.142v88.813c0 1.129.924 2.044 2.063 2.045h163.874c1.139-.001 2.063-.916 2.063-2.045V59.142c0-1.13-.924-2.044-2.063-2.045zm1.474 90.858c0 .807-.66 1.46-1.474 1.46H2.063c-.814 0-1.474-.653-1.474-1.46V59.142c0-.785.627-1.43 1.418-1.46l34.835 14.326 47.535 19.55c.515.208 1.091.205 1.604-.008l46.061-19.498 33.954-14.37c.79.033 1.413.676 1.415 1.46v88.813z" transform="translate(-694 -1059) translate(694 1059) translate(40)"/>
                        <path fill="#443868" d="M77.399 28.432H45.183c-1.294 0-2.343-1.112-2.343-2.484 0-1.372 1.049-2.484 2.343-2.484h32.216c1.294 0 2.343 1.112 2.343 2.484 0 1.372-1.05 2.484-2.343 2.484zM61.727 20.052h-16.41c-1.368 0-2.477-1.112-2.477-2.484 0-1.372 1.109-2.484 2.477-2.484h16.41c1.368 0 2.477 1.112 2.477 2.484 0 1.372-1.109 2.484-2.477 2.484z" transform="translate(-694 -1059) translate(694 1059) translate(40)"/>
                        <path fill="#CCC" d="M108.383 54.194H59.617c-1.283 0-2.322-1.3-2.322-2.904 0-1.603 1.04-2.903 2.322-2.903h48.766c1.283 0 2.322 1.3 2.322 2.903 0 1.604-1.04 2.904-2.322 2.904zM108.383 64.839H59.617c-1.283 0-2.322-1.3-2.322-2.904 0-1.603 1.04-2.903 2.322-2.903h48.766c1.283 0 2.322 1.3 2.322 2.903 0 1.604-1.04 2.904-2.322 2.904z" transform="translate(-694 -1059) translate(694 1059) translate(40)"/>
                    </g>
                </g>
            </g>
        </g>
    </g>
</svg>
