<svg xmlns="http://www.w3.org/2000/svg" width="212" height="135" viewBox="0 0 212 135">
    <g fill="none" fill-rule="evenodd">
        <g>
            <g>
                <g fill-rule="nonzero">
                    <g>
                        <g>
                            <g>
                                <g transform="translate(-691 -1037) translate(691 1037)">
                                    <path fill="#2F2E41" d="M25.885 19.42s-2.587-.77-3.141.067c-.555.837.756 6.9.756 6.9l5.7.349-1.99-5.049-1.325-2.267z"/>
                                    <path fill="#A0616A" d="M6.532 68.75s5.54 10.836 1.273 10.495C3.54 78.905 1.884 68.75 1.884 68.75h4.648zM39.38 67.835s-2.551 11.61 1.695 10.37c4.247-1.24 3.037-11.365 3.037-11.365l-4.733.995zM25.368 15.487s-.06 5.813 2.153 6.116c2.212.303-1.256 3.391-1.256 3.391l-3.946.787-5.679-.424-2.51-3.27s4.423-2.119 2.51-8.719l8.728 2.12z"/>
                                    <path fill="#000" d="M25.368 15.487s-.06 5.813 2.153 6.116c2.212.303-1.256 3.391-1.256 3.391l-3.946.787-5.679-.424-2.51-3.27s4.423-2.119 2.51-8.719l8.728 2.12z" opacity=".1"/>
                                    <path fill="#000" d="M34.387 64.94s2.733 5.95.581 24.62c0 0 .64 6.597.116 7.834-.523 1.236-4.826 18.022-4.826 18.022s-5.525 1.237-6.28-2.473c0 0 .755-5.301.697-6.126-.058-.824 1.221-9.836 1.221-9.836L23.28 79.548l-1.977 15.725s0 4.535-.64 5.537c-.64 1.001 0 21.144 0 21.144s1.803 3.063-.93 3.122c-2.733.059-5.176-.06-5.408-2.003-.233-1.944-.349-3.887-.93-5.065-.582-1.178-1.338-14.666-1.164-19.378.175-4.711-3.838-28.918-2.558-31.451 1.279-2.533 24.715-2.238 24.715-2.238z"/>
                                    <ellipse cx="22.136" cy="10.981" fill="#A0616A" rx="7.065" ry="7.161"/>
                                    <path fill="#F2F2F2" d="M14.893 23.031s4.226 3.214 10.364.655c0 0 2.026-1.012 1.852-2.56-.173-1.547 4.227 12.44 4.227 12.44l4.458 24.345-.232 9.94s-1.968-1.012-8.105 1.25c-6.137 2.262-16.154-2.56-16.154-2.56l.348-25.534.347-14.88.926-3.274s.464-.893 1.969.178z"/>
                                    <path fill="#2F2E41" d="M25.432 19.102s1.05-.17 2.06 1.432c1.01 1.602 3.388 2.611 3.388 2.611s5.764.356 6.596 3.441c.832 3.086 2.912 7.299 3.922 15.072 1.01 7.773 3.03 20.174 3.328 21.182.297 1.01-.416 4.095.416 5.044.832.95-5.883.95-5.883.95s-.595-4.866-1.01-4.866c-.416 0-.298 3.263.118 5.637.416 2.373-3.03 0-3.03 0s-2.675-10.859-5.23-20.65c-2.555-9.79-4.04-15.189-3.565-17.384.475-2.196 1.782-8.485.832-9.079-.951-.593-1.942-3.39-1.942-3.39zM16.844 19.097s-1.537.84-5.42 3.614-6.53 4.9-6.53 4.9-1.53 1.18-2.472 8.204C1.481 42.84-.638 61.02.186 63.323c.824 2.302 1.118 3.66.824 5.017-.294 1.358 6.178 1.299 6.295 1.003.118-.295-.176-5.666.118-5.784.294-.118 1.883 3.187 2.177 5.962.294 2.774 3.707 4.958 4.471 4.958.765 0 4.707-15.997 4.766-26.917.059-10.92-1.294-20.129-2.295-21.428-1-1.298.302-7.037.302-7.037z"/>
                                    <path fill="#666" d="M27.813 115.618s.468-1.323 2.107-.902c1.639.421 2.75-1.083 2.75-1.083s.879-.12.293 1.023c-.585 1.143-1.053 1.925-1.053 1.925s3.511 8.242 1.229 10.227c-2.283 1.985-4.916.782-4.916.782s-2.575-1.865-2.458-6.798c0 0-.117-1.564-1.522-4.09-1.404-2.527-2.458-6.378-.76-7.1 1.697-.721 2.133-.748 2.133-.748s-.794 3.734 1.258 5.039l.94 1.725zM15.775 124.473s-1.355-2.69.903-2.989c2.259-.299 4.686-.478 4.573.777-.113 1.256-.395 3.168-.395 3.168l.395 1.375s.113 3.408.509 3.826c.395.418 2.54 4.005-2.033 4.005s-5.928-.538-5.533-1.674c.395-1.135.508-6.754.508-6.754l1.073-1.734z"/>
                                    <path fill="#242423" d="M20.14 5.462s3.331.905 5.057 1.267c1.725.362 1.547-.664 1.547-.664s2.26.302 2.142.06c-.12-.24.952-1.507-.298-2.955-1.25-1.448-.892-2.533-.892-2.533h-1.071l-.298-.423h-1.666s-1.249-.482-4.521 0c-3.273.483-7.735.604-8.092 2.594-.357 1.99-2.202 4.464-1.547 5.61.654 1.146 4.403 5.85 4.76 7.84.357 1.991 2.024 2.434 1.964 1.187-.06-1.246-1.726-5.59-.298-5.77 1.428-.181 3.867-3.86 3.213-6.213z"/>
                                </g>
                            </g>
                        </g>
                    </g>
                    <g>
                        <path fill="#F0F0F0" d="M149.632 0H5.098C2.284.004.004 2.296 0 5.124V61.19c.004 2.828 2.284 5.12 5.098 5.124h144.534c2.814-.004 5.094-2.296 5.098-5.124V5.124c-.004-2.828-2.284-5.12-5.098-5.124z" transform="translate(-691 -1037) translate(691 1037) translate(57.27 24.114)"/>
                        <path fill="#6B677A" d="M31.928 50.349c-9.495 0-17.192-7.973-17.192-17.807s7.697-17.806 17.192-17.806c9.495 0 17.193 7.972 17.193 17.806-.011 9.83-7.702 17.795-17.193 17.807zm0-34.999c-9.167 0-16.599 7.697-16.599 17.192 0 9.495 7.432 17.193 16.6 17.193 9.167 0 16.599-7.698 16.599-17.193-.01-9.49-7.436-17.181-16.6-17.192z" transform="translate(-691 -1037) translate(691 1037) translate(57.27 24.114)"/>
                        <path fill="#443868" d="M136.216 22.104h-69.81c-2.027.001-3.692 1.564-3.771 3.54-.005.048-.006.096-.006.144.003 2.034 1.692 3.681 3.778 3.684h69.81c2.085 0 3.777-1.649 3.777-3.684 0-2.034-1.692-3.684-3.778-3.684zM136.216 36.84h-69.81c-2.027.002-3.692 1.564-3.771 3.54-.005.048-.006.096-.006.144.003 2.034 1.692 3.682 3.778 3.685h69.81c2.085 0 3.777-1.65 3.777-3.685 0-2.034-1.692-3.684-3.778-3.684z" transform="translate(-691 -1037) translate(691 1037) translate(57.27 24.114)"/>
                        <path fill="#71D800" d="M29.315 40.524c-.478.001-.943-.151-1.326-.435l-.024-.017-4.992-3.777c-.629-.476-.953-1.248-.85-2.024.103-.777.617-1.44 1.349-1.74.732-.3 1.57-.192 2.2.285l3.233 2.45 7.641-9.848c.358-.46.887-.763 1.47-.839.583-.076 1.173.08 1.64.434l-.048.063.049-.062c.97.737 1.154 2.112.41 3.072L31.08 39.67c-.421.541-1.073.857-1.764.855z" transform="translate(-691 -1037) translate(691 1037) translate(57.27 24.114)"/>
                    </g>
                </g>
            </g>
        </g>
    </g>
</svg>
