<svg xmlns="http://www.w3.org/2000/svg" width="26" height="26" viewBox="0 0 26 26">
    <g fill="none" fill-rule="evenodd">
        <g>
            <g>
                <g transform="translate(-957 -607) translate(958 608)">
                    <g fill="#C9C9C9" fill-rule="nonzero">
                        <g>
                            <g class="fill">
                                <path d="M12 1.184c-.446.2-.922.334-1.418.398.51-.312.9-.803 1.083-1.394-.476.29-1 .496-1.56.61C9.653.305 9.01 0 8.308 0 6.946 0 5.849 1.134 5.849 2.524c0 .2.017.392.057.575C3.861 2.997 2.051 1.992.836.46.622.838.498 1.27.498 1.735c0 .874.439 1.649 1.092 2.097-.395-.007-.782-.125-1.111-.31v.027c0 1.226.853 2.245 1.971 2.48-.2.056-.418.083-.645.083-.157 0-.317-.01-.466-.044.319 1 1.223 1.734 2.299 1.758-.837.672-1.9 1.076-3.05 1.076-.202 0-.395-.009-.589-.034C1.09 9.588 2.381 10 3.774 10c4.527 0 7.002-3.846 7.002-7.18 0-.112-.004-.22-.009-.326.488-.356.899-.8 1.233-1.31z" transform="translate(6 7)"/>
                            </g>
                        </g>
                    </g>
                    <rect width="24" height="24" stroke="#C9C9C9" stroke-width=".6" rx="4"/>
                </g>
            </g>
        </g>
    </g>
</svg>
